<svg xmlns="http://www.w3.org/2000/svg" xmlns:xlink="http://www.w3.org/1999/xlink" viewBox="-21890.703 -15268 536.104 485.65">
  <defs>
    <style>
      .cls-1 {
        fill: url(#linear-gradient);
      }

      .cls-2 {
        fill: #137fcf;
      }

      .cls-3 {
        fill: url(#linear-gradient-2);
      }

      .cls-4 {
        fill: #0e71bb;
      }

      .cls-5 {
        fill: #152735;
      }

      .cls-6 {
        fill: #f0d2b9;
      }

      .cls-7 {
        fill: #30a3d1;
      }

      .cls-8 {
        fill: #1f364c;
      }

      .cls-9 {
        fill: url(#linear-gradient-3);
      }

      .cls-10 {
        fill: #004f89;
      }

      .cls-11 {
        fill: #005b9f;
      }

      .cls-12 {
        fill: #ffe7cb;
      }

      .cls-13 {
        fill: #f1d2b7;
      }

      .cls-14 {
        fill: #288ed9;
      }

      .cls-15, .cls-21, .cls-22, .cls-23, .cls-26 {
        fill: none;
      }

      .cls-15 {
        stroke: #005b9f;
      }

      .cls-15, .cls-21, .cls-22, .cls-23 {
        stroke-width: 2px;
      }

      .cls-16, .cls-25 {
        fill: #fff;
      }

      .cls-17 {
        fill: #d6eeff;
      }

      .cls-18 {
        fill: #21e2e2;
      }

      .cls-19 {
        fill: #ffbc98;
      }

      .cls-20 {
        fill: url(#linear-gradient-6);
      }

      .cls-21 {
        stroke: #ffbc98;
      }

      .cls-21, .cls-22, .cls-23, .cls-25 {
        stroke-miterlimit: 10;
      }

      .cls-22, .cls-25, .cls-26 {
        stroke: #fff;
      }

      .cls-23 {
        stroke: #52acea;
      }

      .cls-24 {
        fill: #52acea;
      }

      .cls-26 {
        opacity: 0.2;
      }

      .cls-27 {
        filter: url(#Union_11);
      }
    </style>
    <linearGradient id="linear-gradient" x1="0.578" y1="-0.092" x2="0.568" y2="1.227" gradientUnits="objectBoundingBox">
      <stop offset="0" stop-color="#c6e6ff"/>
      <stop offset="1" stop-color="#d6eeff" stop-opacity="0"/>
    </linearGradient>
    <linearGradient id="linear-gradient-2" x1="0.5" y1="1.566" x2="0.5" gradientUnits="objectBoundingBox">
      <stop offset="0" stop-color="#288ed9" stop-opacity="0"/>
      <stop offset="1" stop-color="#005b9f"/>
    </linearGradient>
    <linearGradient id="linear-gradient-3" x1="0.5" y1="1.809" x2="0.5" xlink:href="#linear-gradient-2"/>
    <filter id="Union_11" x="-21583.793" y="-15232.096" width="97.852" height="79.96" filterUnits="userSpaceOnUse">
      <feOffset dx="3" dy="5" input="SourceAlpha"/>
      <feGaussianBlur result="blur"/>
      <feFlood flood-color="#288ed9" flood-opacity="0.173"/>
      <feComposite operator="in" in2="blur"/>
      <feComposite in="SourceGraphic"/>
    </filter>
    <linearGradient id="linear-gradient-6" x1="0.5" y1="1.34" x2="0.5" xlink:href="#linear-gradient-2"/>
  </defs>
  <g id="Group_8033" data-name="Group 8033" transform="translate(-22023 -17860)">
    <g id="Group_5993" data-name="Group 5993" transform="translate(0 1.188)">
      <path id="Path_4227" data-name="Path 4227" class="cls-1" d="M91.556,336S29.449,281.313,5.419,232.411,32,103.931,32,103.931h0c48.456-74.325.575-84.573,110.36-119.047S418.783,12.833,423.926,13.8c66.967,12.807,69.249,63.693,83.736,97.74s49.3,65.77,7.49,131.444-52.724,118.3-126.287,114.354-148.826,25.635-204.613,18.412C128.465,368.621,113.021,352.854,91.556,336Z" transform="translate(667.348 2987.273) rotate(180)"/>
      <path id="Path_5599" data-name="Path 5599" class="cls-2" d="M42.141,38.754c1.545-.322,233.026-54.907,335.971-33.975,42.072,6.431,31.467,4.358,83.122,22.622s28.007,77.782-48.4,86.482-79.493-.529-142.65-6.609-82.967,3.021-117.539,8.979S52.744,121.918,28.1,105.33-26.231,53.487,42.141,38.754Z" transform="translate(173.346 2931.256) rotate(3)"/>
      <ellipse id="Ellipse_619" data-name="Ellipse 619" class="cls-3" cx="13.316" cy="4.058" rx="13.316" ry="4.058" transform="translate(299.568 2980.484)"/>
      <path id="Path_4202" data-name="Path 4202" class="cls-4" d="M78.5,314.5l14.08,91.1h7.454L87.61,314.5Z" transform="translate(216.063 2579.164)"/>
      <path id="Path_4201" data-name="Path 4201" class="cls-5" d="M177.96,245.5l47.209,9.939s22.362,2.485,12.423,26.5-37.27,97.73-37.27,97.73H181.273l22.362-96.9-18.221-1.656s-62.945-20.706-62.945-21.534S117.5,245.5,117.5,245.5Z" transform="translate(209.363 2591.018)"/>
      <path id="Path_4203" data-name="Path 4203" class="cls-4" d="M180.518,403.887H188.8L172.236,304.5,156.5,306.985l3.313,1.656Z" transform="translate(203.357 2580.883)"/>
      <path id="Path_4207" data-name="Path 4207" class="cls-6" d="M155.236,135.253l19.049,49.769,47.209-7.454s24.847-4.141,25.675,4.141-9.939,16.564-9.939,16.564-10.767-3.313-11.6-8.282-53.834,11.6-53.834,11.6-9.939,0-16.564-9.939S139.5,161.831,139.5,161.831v-23.19l5.8-4.141Z" transform="translate(205.584 2610.086)"/>
      <path id="Path_4204" data-name="Path 4204" class="cls-7" d="M52.508,140.5s-21.534,0-19.049,37.27,4.969,73.712,4.969,73.712,2.485,36.442,45.552,36.442,65.43-3.313,65.43-3.313l9.939-22.362L80.667,245.684Z" transform="translate(223.834 2609.055)"/>
      <path id="Path_4206" data-name="Path 4206" class="cls-8" d="M66.46,252.126V245.5h49.693l10.767,3.313,44.724,10.767s27.331,2.485,15.736,30.644-37.27,89.448-37.27,89.448H131.061l23.19-95.246S61.491,309.273,66.46,252.126Z" transform="translate(218.164 2591.018)"/>
      <path id="Path_4208" data-name="Path 4208" class="cls-4" d="M366.765,386.97h-5.052L358.4,247h11.678Z" transform="translate(167.982 2590.76)"/>
      <ellipse id="Ellipse_620" data-name="Ellipse 620" class="cls-9" cx="61.728" cy="10.281" rx="61.728" ry="10.281" transform="translate(330.754 2993.863)"/>
      <g id="Group_5141" data-name="Group 5141" transform="translate(263.838 2713.641)">
        <path id="Path_4205" data-name="Path 4205" class="cls-10" d="M128.5,101.5c19.547,2.541,25.1,16.155,30.182,33.127L132.812,142.8Z" transform="translate(-60.457 -101.5)"/>
        <path id="Path_4209" data-name="Path 4209" class="cls-2" d="M115.382,100.809s14.347,9.164,14.347,58.278,0,56.485-1.242,56.485H59.744l-3.644-67.5s8.614-8.614,7.371-19.629S68.358,100.2,68.358,100.2l20.871,14.742,14.742-1.242Z" transform="translate(-43.927 -97.665)"/>
        <path id="Path_4217" data-name="Path 4217" class="cls-11" d="M65.916,99S43.14,109.85,41.9,123.847c-.828,9.11-.828,9.11,1.656,24.018l26.5-11.6C65.916,126.331,64.342,116.227,65.916,99Z" transform="translate(-41.402 -97.459)"/>
      </g>
      <g id="Group_5135" data-name="Group 5135" transform="translate(381.912 2968.619)">
        <path id="Path_4212" data-name="Path 4212" class="cls-7" d="M209.767,405a5.463,5.463,0,0,1,4.887,2.982c2.9,5.466,9.939,16.813,19.38,17.807,12.506,1.408,9.69,1.408,11.1,11.1S185.5,427.2,185.5,427.2s1.408-22.2,11.1-22.2Z" transform="translate(-184.229 -405)"/>
        <path id="Path_4213" data-name="Path 4213" class="cls-8" d="M243.709,446.841l-58.39-11.181a1.658,1.658,0,0,1-1.325-1.9l.414-2.236a1.658,1.658,0,0,1,1.9-1.325l58.39,11.181a1.658,1.658,0,0,1,1.325,1.9l-.414,2.236A1.616,1.616,0,0,1,243.709,446.841Z" transform="translate(-183.966 -409.323)"/>
        <g id="Group_5134" data-name="Group 5134" transform="translate(11.308 12.423)">
          <path id="Path_4214" data-name="Path 4214" class="cls-11" d="M227.171,431.347c-4.8,1.16-11.6,1.491-15.156-4.721-1.988-3.064-4.307-4.887-6.874-5.218a9.231,9.231,0,0,0-6.377,1.822.676.676,0,0,1-.994-.083.656.656,0,0,1,.083-.911c.166-.083,3.4-2.733,7.454-2.153,2.982.414,5.632,2.4,7.868,5.8,5.135,9.11,17.972,2.65,18.552,2.4a.666.666,0,0,1,.911.248.7.7,0,0,1-.331.911A22.336,22.336,0,0,1,227.171,431.347Z" transform="translate(-197.619 -420)"/>
        </g>
        <path id="Path_4215" data-name="Path 4215" class="cls-11" d="M194.641,426.782h0a4.153,4.153,0,0,1-4.141-4.141h0a4.153,4.153,0,0,1,4.141-4.141h0a4.153,4.153,0,0,1,4.141,4.141h0A4.1,4.1,0,0,1,194.641,426.782Z" transform="translate(-185.088 -407.319)"/>
      </g>
      <rect id="Rectangle_2114" data-name="Rectangle 2114" class="cls-11" width="55.491" height="5.798" transform="translate(361.234 2809.602)"/>
      <path id="Path_4216" data-name="Path 4216" class="cls-12" d="M45.063,154.825c5.8-6.709,11.138-18.131,22.154-15.481,9.276,12.009,19.023,32.085,23.5,47.324l47.209-5.8c12.258-5.052,21.2-2.733,26.5,7.454l2.65,14a.829.829,0,0,1-1.574.5l-4.39-10.353c-5.88,8.531-12.258,8.365-19.049,0L86.488,206.794a7.529,7.529,0,0,1-7.123-1.9C66.114,191.8,53.345,176.276,45.063,154.825Z" transform="translate(221.658 2608.852)"/>
      <path id="Path_4211" data-name="Path 4211" class="cls-7" d="M338.951,136H244.534L223,205.571h94.417Z" transform="translate(191.242 2609.828)"/>
      <g id="Group_5137" data-name="Group 5137" transform="translate(341.434 2967.111)">
        <path id="Path_4218" data-name="Path 4218" class="cls-7" d="M160.435,403.2a5.884,5.884,0,0,1,5.383,2.733c3.479,5.549,11.761,16.9,21.7,17.31,13.252.5,10.353.745,12.506,10.85,2.236,10.1-63.525-5.715-63.525-5.715s-.248-23.439,10.021-24.184Z" transform="translate(-135.333 -403.18)"/>
        <path id="Path_4219" data-name="Path 4219" class="cls-8" d="M199.12,444.95l-62.531-7.371a1.671,1.671,0,0,1-1.491-1.822l.331-2.567a1.671,1.671,0,0,1,1.822-1.491l62.531,7.371a1.671,1.671,0,0,1,1.491,1.822l-.331,2.568A1.565,1.565,0,0,1,199.12,444.95Z" transform="translate(-135.092 -408.078)"/>
        <g id="Group_5136" data-name="Group 5136" transform="translate(11.499 13.584)">
          <path id="Path_4220" data-name="Path 4220" class="cls-11" d="M180.551,429.784c-4.969,1.656-12.092,2.485-16.233-3.81-2.319-3.064-4.887-4.8-7.62-4.969a9.6,9.6,0,0,0-6.543,2.4.7.7,0,0,1-.994-.994,11.135,11.135,0,0,1,7.7-2.816c3.23.166,6.129,2.071,8.7,5.549,6.046,9.193,19.132,1.408,19.712,1.077a.749.749,0,0,1,.994.166.79.79,0,0,1-.248.994A30.72,30.72,0,0,1,180.551,429.784Z" transform="translate(-148.975 -419.582)"/>
        </g>
        <path id="Path_4221" data-name="Path 4221" class="cls-11" d="M146.167,427.46h-.5a4.181,4.181,0,0,1-4.472-3.893v-.5a4.181,4.181,0,0,1,3.893-4.472h.5a4.181,4.181,0,0,1,4.472,3.893v.5A4.181,4.181,0,0,1,146.167,427.46Z" transform="translate(-136.139 -405.826)"/>
      </g>
      <path id="Path_4222" data-name="Path 4222" class="cls-11" d="M79.48,89.8c-5.052,0-5.8,1.988-8.614,7.371-2.485,6.129,24.515,29.485,24.515,29.485l6.129-11.015,4.887,11.015c12.258-17.558,17.89-32.383,3.644-34.371Z" transform="translate(217.402 2617.764)"/>
      <path id="Path_4224" data-name="Path 4224" class="cls-12" d="M118.264,20.844c2.9,31.555-.083,48.948-8.614,52.758v6.129l-1.325,2.982L101.037,99.36,80.248,82.215c-1.739-2.236-1.242-4.887-1.242-6.129V63.829l-3.644-7.371c-5.383-3.23-7.785-7.04-7.371-12.258l4.887-19.629L85.135,17.2Z" transform="translate(217.877 2630.234)"/>
      <path id="Path_4225" data-name="Path 4225" class="cls-13" d="M94.6,83.9c7.537,4.141,19.629,1.242,19.629,1.242v6.129C109.342,97.4,97.085,96.158,94.6,83.9Z" transform="translate(213.297 2618.777)"/>
      <ellipse id="Ellipse_609" data-name="Ellipse 609" class="cls-3" cx="13.316" cy="4.058" rx="13.316" ry="4.058" transform="translate(260.568 2999.484)"/>
      <path id="Path_4226" data-name="Path 4226" class="cls-13" d="M111.844,46.366,111.1,56.3a1.2,1.2,0,0,0,1.242,1.325h6.543a1.186,1.186,0,0,0,1.077-1.739l-5.8-9.939A1.216,1.216,0,0,0,111.844,46.366Z" transform="translate(210.465 2625.418)"/>
      <path id="Path_4210" data-name="Path 4210" class="cls-4" d="M55.365,413.422H50.313L47,248H58.678Z" transform="translate(221.475 2590.588)"/>
      <rect id="Rectangle_2115" data-name="Rectangle 2115" class="cls-14" width="351.166" height="11.595" transform="translate(229.547 2814.984)"/>
      <rect id="Rectangle_2117" data-name="Rectangle 2117" class="cls-11" width="320.924" height="6.336" transform="translate(244.934 2826.578)"/>
      <rect id="Rectangle_2118" data-name="Rectangle 2118" class="cls-14" width="330.349" height="11.595" transform="translate(238.6 2830.371)"/>
      <path id="Path_4228" data-name="Path 4228" class="cls-4" d="M30.749,33.98C67.108,52.325,77.5,30.112,61.472,13.2,51.194,3.258,40.254-.5,29.313.053c2.984,9.615,3.978,18.677-4.531,15.693C8.2,12.32-1.506,25.344.191,42.633,1.84,57.794,14.627,70.733,16.825,62.05,2.679,50.336,21.8,37.185,20.582,52.988,29.644,58.845,31.855,50,30.749,33.98Z" transform="translate(275.686 2620.055)"/>
      <path id="Path_4229" data-name="Path 4229" class="cls-11" d="M19709.895,3812.515l-3.488-3.35-93.984-.1-21.846,67.448h5.1l20.293-63.946Z" transform="translate(-19179.676 -1066.641)"/>
      <circle id="Ellipse_612" data-name="Ellipse 612" class="cls-8" cx="6.563" cy="6.563" r="6.563" transform="translate(286.59 2665.342)"/>
      <ellipse id="Ellipse_1296" data-name="Ellipse 1296" class="cls-3" cx="13.316" cy="4.058" rx="13.316" ry="4.058" transform="translate(519.568 2973.484)"/>
      <path id="Path_4230" data-name="Path 4230" class="cls-15" d="M19481,3732.309s10.289,27.661,27.707,21.928" transform="translate(-19187.848 -1058.971)"/>
      <circle id="Ellipse_613" data-name="Ellipse 613" class="cls-8" cx="4.923" cy="4.923" r="4.923" transform="translate(316.125 2690.502)"/>
      <g class="cls-27" transform="matrix(1, 0, 0, 1, 22023, 17858.81)">
        <path id="Union_11-2" data-name="Union 11" class="cls-16" d="M14.381,59.648H0V0H94.85V59.648H37.211L14.381,74.96Z" transform="translate(-21583.79 -15232.1)"/>
      </g>
      <g id="Group_5172" data-name="Group 5172" transform="translate(451.453 2646.689)">
        <rect id="Rectangle_2132" data-name="Rectangle 2132" class="cls-17" width="69.577" height="2.577" transform="translate(0)"/>
        <rect id="Rectangle_2133" data-name="Rectangle 2133" class="cls-17" width="69.577" height="2.577" transform="translate(0 10.308)"/>
        <rect id="Rectangle_2134" data-name="Rectangle 2134" class="cls-17" width="34.789" height="2.577" transform="translate(0 20.615)"/>
      </g>
      <path id="Union_10" data-name="Union 10" class="cls-14" d="M14.381,59.648H0V0H94.85V59.648H37.211L14.381,74.96Z" transform="translate(383.498 2590.813)"/>
      <rect id="Rectangle_2128" data-name="Rectangle 2128" class="cls-16" width="69.577" height="2.577" transform="translate(395.74 2609.496)"/>
      <rect id="Rectangle_2129" data-name="Rectangle 2129" class="cls-18" width="69.577" height="2.577" transform="translate(395.74 2619.805)"/>
      <rect id="Rectangle_2130" data-name="Rectangle 2130" class="cls-19" width="34.789" height="2.577" transform="translate(395.74 2630.113)"/>
    </g>
    <g id="Group_6362" data-name="Group 6362" transform="translate(23 38.674)">
      <ellipse id="Ellipse_1307" data-name="Ellipse 1307" class="cls-20" cx="36.912" cy="7.834" rx="36.912" ry="7.834" transform="translate(533.52 2981.504)"/>
      <g id="Group_6361" data-name="Group 6361" transform="translate(477 2804.001)">
        <path id="Path_5736" data-name="Path 5736" class="cls-18" d="M127.418,170.5H86.9l4.221,41.362H123.2Z" transform="translate(-14.016 -27.815)"/>
        <path id="Path_5737" data-name="Path 5737" class="cls-19" d="M160.941,104.856C144.5,87.531,133.133,98.1,133.4,110.186a.913.913,0,0,0,.977.888c15.725-2.132,15.992-.711,3.11,4.264a.984.984,0,0,0-.622.8c-.089,3.287.977,5.953,3.82,7.552a2.57,2.57,0,0,0,2.754,0c11.372-6.574,12.26-5.419,2.665,4.709a1.033,1.033,0,0,0-.178.888,5.3,5.3,0,0,0,3.909,3.909.738.738,0,0,0,.711-.178c8.707-5.686,9.684-4.62,3.909,2.132a1.787,1.787,0,0,0-.267,1.866,6.256,6.256,0,0,0,1.333,2.132,1.8,1.8,0,0,0,2.843-.178c3.731-5.419,4.176-5.153,1.066,1.6a1.008,1.008,0,0,0,.355,1.155c2.754,1.866,4.709,3.82,5.331,6.041a.879.879,0,0,0,1.422.444l4-3.376a1.654,1.654,0,0,0,.444-2.043s-4.353-7.2-3.021-6.752,4.886,7.285,4.886,7.285a1.858,1.858,0,0,0,1.51.8,4.257,4.257,0,0,0,2.31-.8,1.684,1.684,0,0,0,.444-2.221s-6.93-9.95-5.6-10.395,6.574,9.062,6.574,9.062a1.751,1.751,0,0,0,1.777.711,4.019,4.019,0,0,0,2.221-1.51,1.873,1.873,0,0,0,.178-2.31c-9.684-12.882-8.529-13.86.267-4.709a1.8,1.8,0,0,0,3.021-.711,6.182,6.182,0,0,0-.355-3.909,8.1,8.1,0,0,0-3.11-4c-7.818-5.242-7.107-6.574-1.155-3.287a.873.873,0,0,0,1.155-1.155C175.245,103.434,166.094,96.771,160.941,104.856Z" transform="translate(-22.108 -17.946)"/>
        <path id="Path_5738" data-name="Path 5738" class="cls-21" d="M109.6,150.347c-.253-33.765,20.681-44.147,20.681-44.147" transform="translate(-17.555 -17.792)"/>
        <path id="Path_5739" data-name="Path 5739" class="cls-22" d="M80.9,71.5s46.173,37.985,22.622,73.438" transform="translate(-13.081 -12.383)"/>
        <path id="Path_5740" data-name="Path 5740" class="cls-23" d="M8.2,0s-22.791,65.6,7.6,94.852c4.558,4.432,8.61,7.8,12.071,10.638" transform="matrix(0.999, 0.035, -0.035, 0.999, 56.399, 26.611)"/>
        <path id="Path_5741" data-name="Path 5741" class="cls-24" d="M75.023,41.265C65.569,26.493,73.166.073,112.333,12.312c-4.643-16.291,19.5-16.038,40.94,2.364A.871.871,0,0,1,152.6,16.2c-2.27-.289-9.123.182-7.433,2.063,1.342,1.508,11.341,4.436,14.1,4.436a7.721,7.721,0,0,1,6.078,2.954l4.052,5.318a2.518,2.518,0,0,1-2.7,3.967c-5.909-1.688-7.006,4.221,2.448,4.389a.811.811,0,0,1,.76.506c2.279,4.643.591,7.344-1.857,9.707a1.779,1.779,0,0,1-2.026.253c-12.746-8.188-13.59-6.922-1.519,2.448a3.272,3.272,0,0,1,1.266,2.195,4.171,4.171,0,0,1-1.6,4.221,3.31,3.31,0,0,1-3.714.084l-7.006-4.3c-.253-.169-.506.169-.338.422l4.811,4.3a2.563,2.563,0,0,1,.506,3.123c-2.11,3.714-3.292,7.006-3.461,9.792a.891.891,0,0,1-1.435.591c-2.448-2.279-6.753-3.967-13-5.149a1.7,1.7,0,0,1-1.351-1.6c-.506-10.467-1.941-10.551-3.376.591-2.87,2.448-5.993,1.857-9.285-1.688-1.033-2.118,1.222-16.062,0-17.13-.308-.47-3.092,8.964-5.909,14.6-3.545,1.6-6.837.76-10.045-1.266a2.647,2.647,0,0,1-1.013-3.123c9.876-24.226-4.98-3.208-9.2-1.519a20.8,20.8,0,0,1-13.084-4.643,4.332,4.332,0,0,1-.675-5.909c14.1-17.726,12.324-19.837-9.116-4.136A1.673,1.673,0,0,1,75.023,41.265Z" transform="translate(-9.905 -0.466)"/>
        <path id="Path_5742" data-name="Path 5742" class="cls-25" d="M31.657,68.307a.844.844,0,0,0,1.351.253c15.616-14.1,24.564-13.421,32.076-5.149a17.888,17.888,0,0,1,4.305,12.577.8.8,0,0,1-.929.76c-21.356-2.954-22.2-.169-7.006,5.149a3.439,3.439,0,0,1,2.195,4.136,20.419,20.419,0,0,1-4.221,7.344,3.382,3.382,0,0,1-4.3.76c-16.123-9.623-17.3-8.1-4.474,4.811a3.331,3.331,0,0,1,.422,4.221,7.635,7.635,0,0,1-3.967,2.954,2.551,2.551,0,0,1-2.448-.422c-9.285-7.6-10.3-6.669-3.8,2.532a2.654,2.654,0,0,1,.422,1.773,6.117,6.117,0,0,1-4.389,5.571.849.849,0,0,1-.929-.422c-3.8-6.584-4.474-6.331-1.688,1.941a1.6,1.6,0,0,1-.591,1.857c-3.461,2.617-5.4,5.149-6.246,7.6A.794.794,0,0,1,26,126.8a24.983,24.983,0,0,0-8.019-6.5c-.253-.169-.084-.591.084-.844,1.013-1.351,4.221-6.078,4.136-8.526-.169-2.448-4.389,5.571-5.656,8.188a1.762,1.762,0,0,1-1.351.929,3.5,3.5,0,0,1-3.883-2.532,1.575,1.575,0,0,1,.338-1.6c2.026-2.364,8.779-10.214,9.539-14.519.844-5.065-10.636,13.59-10.636,13.59a2.427,2.427,0,0,1-3.208.76,8.46,8.46,0,0,1-4.136-4.727,3.3,3.3,0,0,1,.675-3.376S13.93,98.526,14.859,95.4c1.266-4.052-1.941-1.773-2.11-1.519L2.619,105.7a.815.815,0,0,1-1.351-.338A13.719,13.719,0,0,1,.847,98.1a7.936,7.936,0,0,1,3.292-5.065C14.606,86.117,13.93,84.851,6,88.059a.858.858,0,0,1-1.1-1.1C10.3,71.852,25.579,55.56,31.657,68.307Z" transform="translate(-0.557 -10.202)"/>
        <path id="Path_5743" data-name="Path 5743" class="cls-7" d="M87.381,175l-.636-4.494h40.692Z" transform="translate(-13.992 -27.816)"/>
        <rect id="Rectangle_2922" data-name="Rectangle 2922" class="cls-18" width="47.271" height="10.129" transform="translate(69.507 132.555)"/>
      </g>
      <path id="Path_5744" data-name="Path 5744" class="cls-26" d="M-18081.51-17488.6s29.3,18.545,37.7,53.471" transform="translate(18662.75 20305.6)"/>
      <path id="Path_5745" data-name="Path 5745" class="cls-26" d="M-18040.131-17398.771s5.051,16.93,4.662,34.26" transform="translate(18656.299 20291.598)"/>
      <path id="Path_5746" data-name="Path 5746" class="cls-26" d="M-18072.445-17476.049s3.455,13.818-2.854,24.459" transform="translate(18661.781 20303.643)"/>
      <path id="Path_5747" data-name="Path 5747" class="cls-26" d="M0,0S8.064,2.6,13.812,3.112c8.563.765,16.7-.4,18.433-.4" transform="translate(595.734 2825.612) rotate(8)"/>
      <path id="Path_5748" data-name="Path 5748" class="cls-26" d="M-18058.527-17460.713s1.422,10.678-2,19.031" transform="translate(18659.479 20301.252)"/>
      <path id="Path_5749" data-name="Path 5749" class="cls-26" d="M-18084.146-17482.193s-5.861,14.9-14.281,20.914" transform="translate(18665.387 20304.602)"/>
      <path id="Path_5750" data-name="Path 5750" class="cls-26" d="M-18075.3-17490.137s11.531-4.184,22.574,0" transform="translate(18661.781 20306.129)"/>
      <path id="Path_5751" data-name="Path 5751" class="cls-26" d="M-18097.273-17486.1s-15.094,1.191-24.969,14.1" transform="translate(18669.1 20305.209)"/>
      <path id="Path_5752" data-name="Path 5752" class="cls-26" d="M-18041.227-17386.791s1.277,3.938-5.936,8.209" transform="translate(18657.396 20289.729)"/>
      <path id="Path_5753" data-name="Path 5753" class="cls-26" d="M-18034.582-17389.568c.559.68,3.02,3.76,5.631,5.107" transform="translate(18655.436 20285.162)"/>
      <path id="Path_5754" data-name="Path 5754" class="cls-26" d="M-18033.926-17381.336a15.506,15.506,0,0,0,4.885,5.6" transform="translate(18656.332 20285.879)"/>
      <path id="Path_5755" data-name="Path 5755" class="cls-26" d="M-18044.037-17396.039a13.159,13.159,0,0,1-9.2,5.367" transform="translate(18658.342 20291.17)"/>
    </g>
  </g>
</svg>
